# xmcd
#
# Track frame offsets:
# 182
# 15312
# 27415
# 41237
# 53180
# 64810
# 81517
# 91235
# 104677
# 117747
#
# Disc length: 1758 seconds
#
#
# Revision: 0
# Processed by: cddbd v1.5.1PL0 Copyright (c) Steve Scherf et al.
# Submitted via: FreeRIP 2.35 
#
DISCID=8a06dc0a
DTITLE=Johnny Lee - Country Party
DYEAR=1994
DGENRE=Country
TTITLE0=Country Party
TTITLE1=This Time
TTITLE2=Dear Alice
TTITLE3=Victims of the Pretty Things in Life
TTITLE4=Ramblin' Rose
TTITLE5=Your Song
TTITLE6=Red Sails In The Sunset
TTITLE7=Saturday's Heroes
TTITLE8=Blueberry Hill
TTITLE9=Long Black Veil
EXTD=
EXTT0=
EXTT1=
EXTT2=
EXTT3=
EXTT4=
EXTT5=
EXTT6=
EXTT7=
EXTT8=
EXTT9=
PLAYORDER=
